# xmcd
#
# Track frame offsets: 
#        150
#        19938
#        39705
#        58747
#        79524
#        98880
#        121531
#        145101
#        165195
#        184126
#
# Disc length: 2770 seconds
#
# Revision: 0
# Processed by: cddbd v1.5.2PL0 Copyright (c) Steve Scherf et al.
# Submitted via: ExactAudioCopy v1.3
#
DISCID=750ad00a
DTITLE=BackBone - Runnin' the Roads
DYEAR=2018
DGENRE=Blues Rock
TTITLE0=Ain't A Love Song
TTITLE1=Pray For Me
TTITLE2=Blues On The Rocks
TTITLE3=Good Loving Man
TTITLE4=Running Out Of Time
TTITLE5=Make Some Change
TTITLE6=Midnight Silhouette
TTITLE7=Groove On
TTITLE8=The Gift
TTITLE9=Handful Of Friends
EXTD=
EXTT0=
EXTT1=
EXTT2=
EXTT3=
EXTT4=
EXTT5=
EXTT6=
EXTT7=
EXTT8=
EXTT9=
PLAYORDER=
